<?xml version="1.0" encoding="UTF-8"?>
<svg width="18px" height="18px" viewBox="0 0 18 18" version="1.1" xmlns="http://www.w3.org/2000/svg" xmlns:xlink="http://www.w3.org/1999/xlink">
    <!-- Generator: Sketch 54.1 (76490) - https://sketchapp.com -->
    <title>casino@3x</title>
    <desc>Created with Sketch.</desc>
    <g id="Symbols" stroke="none" stroke-width="1" fill="none" fill-rule="evenodd">
        <g id="casino" fill="#000000" fill-rule="nonzero">
            <path d="M8.98210736,0.0357142857 C4.0222664,0.0357142857 0,4.05 0,9 C0,11.3785714 0.94473161,13.6571429 2.63021869,15.3392857 C6.13001988,18.8464286 11.8198807,18.8571429 15.333996,15.3642857 C18.8481113,11.8714286 18.8588469,6.19285714 15.3590457,2.68571429 C15.3518887,2.67857143 15.3447316,2.67142857 15.333996,2.66071429 C13.6520875,0.975 11.3654076,0.0285714286 8.98210736,0.0357142857 Z M12.5928429,5.09285714 C12.1813121,4.71428571 11.7089463,4.4 11.2007952,4.16428571 L12.4246521,1.18214286 C13.3300199,1.58214286 14.1602386,2.13214286 14.8759443,2.81428571 L12.5928429,5.09285714 Z M10.8035785,4 C10.2882704,3.81071429 9.744334,3.70714286 9.19681909,3.68571429 L9.19681909,0.467857143 C10.1666004,0.489285714 11.1220676,0.678571429 12.0274354,1.02142857 L10.8035785,4 Z M8.76739563,3.68571429 C8.2055666,3.70714286 7.65089463,3.81785714 7.12485089,4.01428571 L5.87952286,1.03928571 C6.8027833,0.682142857 7.77972167,0.489285714 8.76739563,0.464285714 L8.76739563,3.68571429 Z M6.72763419,4.18214286 C6.23021869,4.41428571 5.772167,4.72142857 5.36779324,5.09285714 L3.08827038,2.81428571 C3.78966203,2.14642857 4.59840954,1.60357143 5.48230616,1.20714286 L6.72763419,4.18214286 Z M5.06719682,5.39642857 C4.68429423,5.80714286 4.37296223,6.27857143 4.13677932,6.78571429 L1.14870775,5.56428571 C1.54950298,4.66071429 2.10059642,3.83214286 2.78409543,3.11785714 L5.06719682,5.39642857 Z M3.972167,7.18214286 C3.78250497,7.69642857 3.67872763,8.23928571 3.65725646,8.78571429 L0.433001988,8.78571429 C0.454473161,7.81785714 0.644135189,6.86428571 0.987673956,5.96071429 L3.972167,7.18214286 Z M3.65725646,9.21428571 C3.67872763,9.775 3.78966203,10.3285714 3.98648111,10.8535714 L1.0055666,12.0964286 C0.647713718,11.175 0.454473161,10.2 0.429423459,9.21428571 L3.65725646,9.21428571 Z M4.08310139,9 C4.08310139,6.30357143 6.28031809,4.11071429 8.98210736,4.11071429 C11.6838966,4.11071429 13.8811133,6.30357143 13.8811133,9 C13.8811133,11.6964286 11.6838966,13.8892857 8.98210736,13.8892857 C6.28031809,13.8892857 4.08310139,11.6964286 4.08310139,9 Z M5.37137177,12.9071429 C5.78290258,13.2857143 6.25526839,13.6 6.76341948,13.8357143 L5.53956262,16.8178571 C4.63419483,16.4178571 3.80397614,15.8678571 3.08827038,15.1857143 L5.37137177,12.9071429 Z M7.16063618,14 C7.67594433,14.1892857 8.21988072,14.2928571 8.76739563,14.3142857 L8.76739563,17.5321429 C7.79761431,17.5107143 6.84214712,17.3214286 5.93677932,16.9785714 L7.16063618,14 Z M9.19681909,14.3142857 C9.75864811,14.2928571 10.3133201,14.1821429 10.8393638,13.9857143 L12.0846918,16.9607143 C11.1614314,17.3178571 10.184493,17.5107143 9.19681909,17.5357143 L9.19681909,14.3142857 Z M11.2365805,13.8178571 C11.733996,13.5857143 12.1920477,13.2785714 12.5964215,12.9071429 L14.8795229,15.1857143 C14.1781312,15.8535714 13.3693837,16.3964286 12.4854871,16.7928571 L11.2365805,13.8178571 Z M12.8970179,12.6035714 C13.2799205,12.1928571 13.5912525,11.7214286 13.8274354,11.2142857 L16.815507,12.4357143 C16.4147117,13.3392857 15.8636183,14.1678571 15.1801193,14.8821429 L12.8970179,12.6035714 Z M13.9920477,10.8178571 C14.1817097,10.3035714 14.2854871,9.76071429 14.3069583,9.21428571 L17.5312127,9.21428571 C17.5097416,10.1821429 17.3200795,11.1357143 16.9765408,12.0392857 L13.9920477,10.8178571 Z M14.3069583,8.78571429 C14.2854871,8.225 14.1745527,7.67142857 13.9777336,7.14642857 L16.9586481,5.90357143 C17.316501,6.825 17.5097416,7.8 17.5347913,8.78571429 L14.3069583,8.78571429 Z M13.8095427,6.75 C13.5769384,6.25357143 13.2691849,5.79642857 12.8970179,5.39285714 L15.1801193,3.11428571 C15.8493042,3.81428571 16.3932406,4.62142857 16.7904573,5.50357143 L13.8095427,6.75 Z M1.17375746,12.4928571 L4.15467197,11.25 C4.38727634,11.7464286 4.69502982,12.2035714 5.06719682,12.6071429 L2.78409543,14.8857143 C2.11491054,14.1821429 1.57097416,13.375 1.17375746,12.4928571 Z" id="Shape"></path>
            <path d="M6.41988072,9.26785714 L7.69741551,9.26785714 C7.8083499,9.79642857 8.23419483,10.2 8.7638171,10.2892857 L8.7638171,11.6107143 C8.4667992,11.7285714 8.32007952,12.0642857 8.43817097,12.3642857 C8.55626243,12.6607143 8.89264414,12.8071429 9.19324056,12.6892857 C9.49025845,12.5714286 9.63697813,12.2357143 9.51888668,11.9357143 C9.46163022,11.7892857 9.34353877,11.6714286 9.19324056,11.6107143 L9.19324056,10.2892857 C9.72644135,10.2 10.1487078,9.79642857 10.2596421,9.26785714 L11.5371769,9.26785714 C11.6552684,9.56428571 11.9916501,9.71071429 12.2922465,9.59285714 C12.5892644,9.475 12.7359841,9.13928571 12.6178926,8.83928571 C12.4998012,8.54285714 12.1634195,8.39642857 11.8628231,8.51428571 C11.7161034,8.57142857 11.5980119,8.68928571 11.5371769,8.83928571 L10.2775348,8.83928571 C10.2059642,8.26428571 9.76580517,7.80357143 9.19324056,7.70714286 L9.19324056,6.5 C9.49025845,6.38214286 9.63697813,6.04642857 9.51888668,5.74642857 C9.40079523,5.45 9.06441352,5.30357143 8.7638171,5.42142857 C8.4667992,5.53928571 8.32007952,5.875 8.43817097,6.175 C8.49542744,6.32142857 8.61351889,6.43928571 8.7638171,6.5 L8.7638171,7.71071429 C8.19125249,7.80714286 7.75109344,8.26785714 7.67952286,8.84285714 L6.41988072,8.84285714 C6.30178926,8.54642857 5.96540755,8.4 5.66481113,8.51785714 C5.36779324,8.63571429 5.22107356,8.97142857 5.33916501,9.27142857 C5.45725646,9.57142857 5.79363817,9.71428571 6.09423459,9.59642857 C6.2445328,9.53571429 6.36262425,9.41785714 6.41988072,9.26785714 L6.41988072,9.26785714 Z M12.0811133,8.90357143 C12.1634195,8.90357143 12.2314115,8.97142857 12.2314115,9.05357143 C12.2314115,9.13571429 12.1634195,9.20357143 12.0811133,9.20357143 C11.9988072,9.20357143 11.9308151,9.13571429 11.9308151,9.05357143 C11.9308151,8.97142857 11.9988072,8.90357143 12.0811133,8.90357143 Z M8.98210736,12.3 C8.89980119,12.3 8.83180915,12.2321429 8.83180915,12.15 C8.83180915,12.0678571 8.89980119,12 8.98210736,12 C9.06441352,12 9.13240557,12.0678571 9.13240557,12.15 C9.13240557,12.2321429 9.06441352,12.3 8.98210736,12.3 Z M8.98210736,5.81071429 C9.06441352,5.81071429 9.13240557,5.87857143 9.13240557,5.96071429 C9.13240557,6.04285714 9.06441352,6.11071429 8.98210736,6.11071429 C8.89980119,6.11071429 8.83180915,6.04285714 8.83180915,5.96071429 C8.83180915,5.87857143 8.89980119,5.81071429 8.98210736,5.81071429 Z M8.98210736,8.12142857 C9.46878728,8.12142857 9.86242545,8.51428571 9.86242545,9 C9.86242545,9.48571429 9.46878728,9.87857143 8.98210736,9.87857143 C8.49542744,9.87857143 8.10178926,9.48571429 8.10178926,9 C8.10178926,8.51428571 8.49542744,8.12142857 8.98210736,8.12142857 Z M5.73280318,9.05357143 C5.73280318,8.97142857 5.80079523,8.90357143 5.88310139,8.90357143 C5.96540755,8.90357143 6.0333996,8.97142857 6.0333996,9.05357143 C6.0333996,9.13571429 5.96540755,9.20357143 5.88310139,9.20357143 C5.80079523,9.20714286 5.73280318,9.13928571 5.73280318,9.05357143 Z" id="Shape"></path>
            <path d="M8.98210736,9.53571429 C9.27912525,9.53571429 9.51888668,9.29642857 9.51888668,9 C9.51888668,8.70357143 9.27912525,8.46428571 8.98210736,8.46428571 C8.68508946,8.46428571 8.44532803,8.70357143 8.44532803,9 C8.44532803,9.29642857 8.68508946,9.53571429 8.98210736,9.53571429 Z M8.98210736,8.89285714 C9.04294235,8.89285714 9.08946322,8.93928571 9.08946322,9 C9.08946322,9.06071429 9.04294235,9.10714286 8.98210736,9.10714286 C8.92127237,9.10714286 8.87475149,9.06071429 8.87475149,9 C8.87475149,8.93928571 8.92127237,8.89285714 8.98210736,8.89285714 Z" id="Shape"></path>
            <path d="M12.9256461,13.9 C12.4031809,13.9 11.9809145,14.3214286 11.9809145,14.8428571 C11.9809145,15.3642857 12.4031809,15.7857143 12.9256461,15.7857143 C13.4481113,15.7857143 13.8703777,15.3642857 13.8703777,14.8428571 C13.8703777,14.325 13.4481113,13.9035714 12.9256461,13.9 Z M12.9256461,15.3607143 C12.6393638,15.3607143 12.410338,15.1285714 12.410338,14.8464286 C12.410338,14.5607143 12.6429423,14.3321429 12.9256461,14.3321429 C13.2119284,14.3321429 13.4409543,14.5642857 13.4409543,14.8464286 C13.4409543,15.1285714 13.2119284,15.3607143 12.9256461,15.3607143 Z" id="Shape"></path>
        </g>
    </g>
</svg>