<?xml version="1.0" encoding="UTF-8"?>
<svg width="25px" height="24px" viewBox="0 0 25 24" version="1.1" xmlns="http://www.w3.org/2000/svg" xmlns:xlink="http://www.w3.org/1999/xlink">
    <!-- Generator: Sketch 54.1 (76490) - https://sketchapp.com -->
    <title>Combined Shape@2x</title>
    <desc>Created with Sketch.</desc>
    <g id="Symbols" stroke="none" stroke-width="1" fill="none" fill-rule="evenodd">
        <path d="M2.22148749,14.6666667 L3.39473828,14.6666667 C4.52323345,19.3416841 8.55009009,22.8 13.3446855,22.8 C19.0140248,22.8 23.6099324,17.9646753 23.6099324,12 C23.6099324,6.0353247 19.0140248,1.2 13.3446855,1.2 C9.0276151,1.2 5.33297082,4.00374811 3.81606652,7.97490862 L4.9130394,7.25087913 C4.92383275,7.24375524 4.9348025,7.23690227 4.94593835,7.23032662 C5.31499999,7.01239815 5.79084949,7.13491579 6.00877796,7.50397743 C6.24116115,7.89751811 6.12413703,8.40415067 5.74270006,8.6559086 L3.17917864,10.3478967 C3.16838528,10.3550206 3.15741554,10.3618736 3.14627969,10.3684492 C2.92394053,10.4997391 2.66284384,10.5074676 2.44273355,10.4121665 C2.20864404,10.3598891 2.00195509,10.2001678 1.89924914,9.96326446 C1.89410512,9.95139916 1.88925849,9.93940714 1.8847138,9.92729962 L0.805307079,7.05165237 C0.644697682,6.6237729 0.847814329,6.1451135 1.26713369,5.96332381 C1.66037051,5.79284181 2.11735491,5.97342028 2.28783691,6.36665711 C2.29298093,6.37852241 2.29782756,6.39051444 2.30237226,6.40262196 L2.74090608,7.57091984 C4.41599169,3.13564348 8.5322855,0 13.3446855,0 C19.6439514,0 24.7505153,5.372583 24.7505153,12 C24.7505153,18.627417 19.6439514,24 13.3446855,24 C7.91655623,24 3.37405715,20.0106365 2.22148749,14.6666667 Z M1.93885556,12 L3.07943855,12 L1.93885556,12 Z" id="Combined-Shape" fill="#D8D8D8"></path>
    </g>
</svg>