<?xml version="1.0" encoding="UTF-8"?>
<svg width="25px" height="25px" viewBox="0 0 25 25" version="1.1" xmlns="http://www.w3.org/2000/svg" xmlns:xlink="http://www.w3.org/1999/xlink">
    <!-- Generator: Sketch 54.1 (76490) - https://sketchapp.com -->
    <title>roulette (1)@3x</title>
    <desc>Created with Sketch.</desc>
    <g id="Symbols" stroke="none" stroke-width="1" fill="none" fill-rule="evenodd">
        <g id="roulette-(1)" fill="#000000" fill-rule="nonzero">
            <path d="M12.482187,4.4918502e-05 C7.43375001,0.000242881051 2.88239652,3.04134357 0.950481518,7.70553917 C-0.981433532,12.3697348 0.0863756149,17.7384791 3.65623152,21.3083378 C6.80521939,24.4826672 11.4116064,25.7302272 15.7321358,24.5786791 C20.0526651,23.4271309 23.4273301,20.0526613 24.5786794,15.7321287 C25.7302266,11.411596 24.4826676,6.80500754 21.3083406,3.65601727 C18.9727802,1.30758754 15.7944939,-0.00886338352 12.482187,4.4918502e-05 Z M20.7350415,20.7350382 C16.173196,25.2701622 8.8020661,25.2594722 4.25348411,20.7108868 C-0.294899937,16.1624992 -0.305787882,8.79116578 4.22953062,4.22931681 C8.79117816,-0.305807207 16.162506,-0.295117254 20.711088,4.25346827 C25.259472,8.80185579 25.27036,16.1731892 20.7350415,20.7350382 Z" id="Shape"></path>
            <path d="M12.4999015,2.67175573 C7.10796716,2.67175573 2.72108844,7.08061194 2.72108844,12.5 C2.72108844,17.9193881 7.10796716,22.3282443 12.4999015,22.3282443 C17.8920328,22.3282443 22.2789116,17.9193881 22.2789116,12.5 C22.2789116,7.08061194 17.8920328,2.67175573 12.4999015,2.67175573 Z M18.8397861,12.1453441 C18.7612169,10.7108875 18.2013867,9.34569964 17.2518612,8.27203417 L19.1077878,6.40672604 C20.5470416,7.97714729 21.3825532,10.0116691 21.4646668,12.1453441 L18.8397861,12.1453441 Z M16.6800192,7.70027023 C15.6156921,6.75999659 14.267807,6.20644044 12.8527737,6.12826571 L12.8527737,3.48991849 C14.9635087,3.57185349 16.9771644,4.40248459 18.5365365,5.83436836 L16.6800192,7.70027023 Z M12.0462087,6.13459885 C10.6429904,6.23493957 9.3128276,6.8027453 8.2666167,7.7479667 L6.41108395,5.88305441 C7.95155224,4.44562915 9.94689483,3.59956098 12.0462087,3.49387671 L12.0462087,6.13459885 Z M7.7008791,8.32566798 C6.77931556,9.39161491 6.23720779,10.7354284 6.1602139,12.1453441 L3.53533311,12.1453441 C3.6162653,10.0364079 4.43366067,8.02326046 5.84416482,6.45956821 L7.7008791,8.32566798 Z M6.16671209,12.9559862 C6.26457897,14.3419547 6.81180657,15.657467 7.72431203,16.7012479 L5.86779466,18.5671497 C4.46634858,17.0256235 3.64284888,15.041569 3.53907451,12.9559862 L6.16671209,12.9559862 Z M8.29320028,17.2757826 C9.33566978,18.2071502 10.6551991,18.76605 12.0462087,18.8654012 L12.0462087,21.5061233 C9.9591036,21.4010328 7.97439442,20.5642664 6.43727372,19.1412886 L8.29320028,17.2757826 Z M12.8527737,18.8717343 C14.2555982,18.7943512 15.5928499,18.2495031 16.6532388,17.3232811 L18.509953,19.1893809 C16.9541253,20.6070151 14.9512999,21.4285424 12.8527737,21.5100816 L12.8527737,18.8717343 Z M12.4999015,18.0713835 C9.43865648,18.0713835 6.95693312,15.5771152 6.95693312,12.5001979 C6.95673622,9.42328062 9.43845958,6.92901233 12.4999015,6.92901233 C15.5611466,6.92901233 18.0430668,9.42308267 18.0430668,12.5 C18.0397193,15.575334 15.5599651,18.0676232 12.4999015,18.0711856 L12.4999015,18.0713835 Z M19.0835672,18.619794 L17.2282314,16.7548817 C18.1686988,15.7033823 18.7336488,14.3664956 18.8332879,12.9559862 L21.4607285,12.9559862 C21.3555758,15.0661099 20.5139598,17.0713409 19.0835672,18.6195961 L19.0835672,18.619794 Z" id="Shape"></path>
            <path d="M15.0726392,12.149049 L14.1957823,12.149049 C14.0541058,11.4790696 13.5274005,10.9555808 12.8531073,10.8147695 L12.8531073,9.94307155 C12.8531073,9.72157291 12.6724157,9.54198473 12.4495561,9.54198473 C12.2266965,9.54198473 12.0460048,9.72157291 12.0460048,9.94307155 L12.0460048,10.8390541 C11.4178206,11.0098293 10.9386035,11.5156922 10.8044148,12.149049 L9.92736077,12.149049 C9.70450121,12.149049 9.52380952,12.3286372 9.52380952,12.5501359 C9.52380952,12.7716345 9.70450121,12.9512227 9.92736077,12.9512227 L10.8288486,12.9512227 C10.9912149,13.5399273 11.4538801,13.999767 12.0460048,14.160946 L12.0460048,15.0569285 C12.0460048,15.2784271 12.2266965,15.4580153 12.4495561,15.4580153 C12.6724157,15.4580153 12.8531073,15.2784271 12.8531073,15.0569285 L12.8531073,14.1852305 C13.4905528,14.0520571 13.9993269,13.5755707 14.1711515,12.9512227 L15.0726392,12.9512227 C15.2954988,12.9512227 15.4761905,12.7716345 15.4761905,12.5501359 C15.4761905,12.3286372 15.2954988,12.149049 15.0726392,12.149049 L15.0726392,12.149049 Z M12.5539908,13.416546 C12.5200988,13.4073415 12.4848274,13.4026412 12.4495561,13.4024453 C12.4243341,13.4024453 12.3991122,13.4049913 12.3742844,13.4096915 C11.9640335,13.3530929 11.6416655,13.0326934 11.5849161,12.624948 C11.5896452,12.6002717 11.5920097,12.5752038 11.5920097,12.5501359 C11.5920097,12.5150799 11.5872806,12.4802199 11.5780194,12.446339 C11.6040296,12.0088253 11.9374323,11.6504323 12.3742844,11.5903085 C12.3991122,11.5950087 12.4243341,11.5975547 12.4495561,11.5975547 C12.4848274,11.5973588 12.5200988,11.5926586 12.5539908,11.583454 C13.0215821,11.6110678 13.3943941,11.981799 13.4221777,12.446339 C13.4129165,12.4802199 13.4081874,12.5150799 13.4079903,12.5501359 C13.4081874,12.5752038 13.410552,12.6002717 13.4152811,12.624948 C13.3547878,13.0591323 12.9941927,13.3904989 12.5539908,13.416546 L12.5539908,13.416546 Z" id="Shape"></path>
        </g>
    </g>
</svg>